<svg xmlns="http://www.w3.org/2000/svg" xmlns:xlink="http://www.w3.org/1999/xlink" viewBox="0 0 349.2 107.66"><defs><style>.cls-1{fill:none;}.cls-2{fill:#231f20;}.cls-3{clip-path:url(#clip-path);}.cls-4{fill:#00668d;}.cls-5{clip-path:url(#clip-path-2);}.cls-6{fill:url(#radial-gradient);}.cls-7{clip-path:url(#clip-path-3);}.cls-8{fill:url(#radial-gradient-2);}.cls-9{clip-path:url(#clip-path-4);}.cls-10{fill:url(#radial-gradient-3);}.cls-11{clip-path:url(#clip-path-5);}.cls-12{fill:url(#radial-gradient-4);}</style><clipPath id="clip-path" transform="translate(0 -6.26)"><rect class="cls-1" width="349.2" height="113.92"/></clipPath><clipPath id="clip-path-2" transform="translate(0 -6.26)"><path class="cls-1" d="M58.38,25.94A28,28,0,1,0,82.79,11.7,28,28,0,0,0,58.38,25.94"/></clipPath><radialGradient id="radial-gradient" cx="-209.68" cy="422.51" r="2" gradientTransform="matrix(22.44, 0, 0, -22.44, 4779.68, 9499.65)" gradientUnits="userSpaceOnUse"><stop offset="0" stop-color="#fff"/><stop offset="0.12" stop-color="#fff"/><stop offset="0.56" stop-color="#bf8924"/><stop offset="0.6" stop-color="#b78322"/><stop offset="1" stop-color="#6c4501"/></radialGradient><clipPath id="clip-path-3" transform="translate(0 -6.26)"><path class="cls-1" d="M22.17,16.42A2.83,2.83,0,0,0,21,17.84c-1.2,3.39-.65,9.52,1.39,17.34,2.48,9.52,7.19,21.53,13.61,34s13.45,23.33,19.73,30.93c5.28,6.35,10,10.4,13.52,11.28a3.31,3.31,0,0,0,1.86-.06,53.58,53.58,0,0,0,16.28-8.59l-.13-.23c-3.39.15-8.53-3.81-14.35-10.73C66.56,84.32,59.4,73.35,52.85,60.58s-11.29-25-13.69-34.53c-2.48-9.86-2.38-15.59-.5-17.88l.07-.1a53.77,53.77,0,0,0-16.57,8.34"/></clipPath><radialGradient id="radial-gradient-2" cx="-214.85" cy="425.82" r="2" gradientTransform="matrix(45.08, 0, 0, -45.08, 9709.72, 19221.37)" gradientUnits="userSpaceOnUse"><stop offset="0" stop-color="#fff"/><stop offset="0.01" stop-color="#fff"/><stop offset="0.06" stop-color="#eef4f2"/><stop offset="0.34" stop-color="#29bdee"/><stop offset="0.62" stop-color="#00a9e9"/><stop offset="0.93" stop-color="#00668d"/><stop offset="1" stop-color="#00668d"/></radialGradient><clipPath id="clip-path-4" transform="translate(0 -6.26)"><path class="cls-1" d="M59.72,6.57c-2.62,1.35-2.79,6.89-.94,14.78a134.64,134.64,0,0,0,11,30.59A138,138,0,0,0,88.25,78.89c4,4.56,7.53,7.51,10.18,8.19a3,3,0,0,0,3.75-1.79,55.06,55.06,0,0,0,5.67-17l-.13-.06a1.9,1.9,0,0,1-.65.54c-1.55.8-4.15-.64-7.15-3.64a88.6,88.6,0,0,1-14.72-21C80.49,35,77.43,25.75,76.42,19.74c-.69-4.19,0-6.73,1.56-7.52a2.1,2.1,0,0,1,.62-.2l.82-.12A53.67,53.67,0,0,0,62.59,6.4a9.19,9.19,0,0,0-1.2-.13H61.2a2.83,2.83,0,0,0-1.49.31"/></clipPath><radialGradient id="radial-gradient-3" cx="-214.85" cy="425.82" r="2" gradientTransform="matrix(45.07, 0, 0, -45.07, 9709.63, 19221.18)" xlink:href="#radial-gradient-2"/><clipPath id="clip-path-5" transform="translate(0 -6.26)"><path class="cls-1" d="M.58,54.16C0,59.46,3,71.42,9.22,83.63A90.83,90.83,0,0,0,21,100.86a29,29,0,0,0,9.05,7.38,54.45,54.45,0,0,0,21.16,5.67l-.07-.2c-5.36-1.78-13.87-11.41-22.24-25.12-2.31-3.81-4.65-7.89-6.88-12.23S17.92,68,16.28,64C9,46.12,6.83,37.12,8.22,31.82l0-.19A54.4,54.4,0,0,0,.58,54.16"/></clipPath><radialGradient id="radial-gradient-4" cx="-214.85" cy="425.82" r="2" gradientTransform="matrix(45.08, 0, 0, -45.08, 9709.75, 19221.42)" xlink:href="#radial-gradient-2"/></defs><title>tmhcc_logo</title><g id="Layer_2" data-name="Layer 2"><g id="Layer_1-2" data-name="Layer 1"><rect class="cls-2" x="134.51" y="57.6" width="214.69" height="0.61"/><g class="cls-3"><path class="cls-2" d="M140.77,51.5c0,1.21-.1,2.63-1.19,3l-.11,0V55h6.18v-.35l-.09,0c-1.43-.84-1.45-1.87-1.45-3.42V37.66h2.49c.93,0,2,.12,2.38,1.07l0,.11h.33l1-3.85h-.34a2.89,2.89,0,0,1-1.32.21H137a3.5,3.5,0,0,1-1.09-.21h-.25l-1.13,3.85h.38a5,5,0,0,1,3.45-1.18h2.43Z" transform="translate(0 -6.26)"/><path class="cls-2" d="M154.53,44.75c0-4.48,3-7.6,7.34-7.6,4.7,0,7.24,4.28,7.24,8.31,0,4.42-3,7.51-7.18,7.51-4.57,0-7.4-4.27-7.4-8.22m-.62-6.92A10,10,0,0,0,150.83,45c0,5.94,4.71,10.42,10.95,10.42a10.69,10.69,0,0,0,11-10.56,10,10,0,0,0-3-7.1,10.81,10.81,0,0,0-7.76-3.09,11.2,11.2,0,0,0-8.16,3.14" transform="translate(0 -6.26)"/><path class="cls-2" d="M180.44,51V39.11c0-1.29,0-3.06,1.22-3.5l.11,0V35.2h-6v.37l.11,0c1.26.46,1.24,2.22,1.23,3.5V51c0,1.29,0,3.06-1.23,3.53l-.11,0V55h6v-.37l-.11,0c-1.26-.47-1.24-2.23-1.22-3.52" transform="translate(0 -6.26)"/><path class="cls-2" d="M193.39,54.56a9.16,9.16,0,0,1-3.48-2.73L184,44.11,191,35.2h-5.83v.36l.1,0a1.21,1.21,0,0,1,.77.75c.18.7-.54,1.67-1.18,2.53l-.42.57-3.94,5.24,6.63,8.93A4.51,4.51,0,0,0,190.54,55h2.95V54.6Z" transform="translate(0 -6.26)"/><path class="cls-2" d="M194.58,35.2v.37l.11,0c1.24.46,1.22,2.13,1.19,3.47v12c0,1.29,0,3.06-1.19,3.5l-.11,0V55h5.94v-.37l-.11,0c-1.23-.47-1.21-2.22-1.19-3.5V39.14c0-1.3,0-3.07,1.19-3.53l.11,0V35.2Z" transform="translate(0 -6.26)"/><path class="cls-2" d="M301,35.2v.37l.11,0c1.24.46,1.22,2.13,1.19,3.47v12c0,1.29,0,3.06-1.19,3.5l-.11,0V55H307v-.37l-.11,0c-1.23-.47-1.21-2.22-1.19-3.5V39.14c0-1.3,0-3.07,1.19-3.53l.11,0V35.2Z" transform="translate(0 -6.26)"/><path class="cls-2" d="M207.19,44.75c0-4.48,3-7.6,7.33-7.6,4.71,0,7.24,4.28,7.24,8.31,0,4.42-3,7.51-7.19,7.51-4.57,0-7.39-4.27-7.39-8.22m-.62-6.92A10,10,0,0,0,203.48,45c0,5.94,4.7,10.42,11,10.42a10.69,10.69,0,0,0,11-10.56,10,10,0,0,0-3-7.1,10.82,10.82,0,0,0-7.76-3.09,11.19,11.19,0,0,0-8.16,3.14" transform="translate(0 -6.26)"/><path class="cls-2" d="M254.43,37.17l1.95,14.5c.17,1.36.32,2.11,1.44,2.89l.07.05V55h-6v-.38l.12,0c.9-.29,1.1-1,1.1-2,0,0-1.46-12.35-1.6-13.57C251,40.1,245,55.45,245,55.45l-.18-.13a7.36,7.36,0,0,1-2.65-3.64L236.8,38.92c-.15,1.11-1.62,12.21-1.62,12.21a12.49,12.49,0,0,0-.16,1.64,1.69,1.69,0,0,0,1,1.78l.1,0V55H231v-.33l.05-.06c1.16-1,1.35-2.34,1.58-3.88l0-.15,1.68-12.38,0-.22c.13-.82.28-1.73-.86-2.35l-.09-.05V35.2h5.51a2.94,2.94,0,0,0,.39,1.46l5.39,12.64,4.76-12.14a5,5,0,0,0,.43-1.78V35.2h5.45v.38c-.65.07-1,.92-.92,1.59" transform="translate(0 -6.26)"/><path class="cls-2" d="M269,38.33c.27.7,2.49,6.41,2.65,6.82h-5.32L269,38.33m2.06-3.13h-4.94v.37l.11,0a1,1,0,0,1,.71.51c.23.48-.06,1.21-.31,1.86L261.5,50.87c-.57,1.5-1.11,2.93-2.63,3.68l-.09,0V55h5.77v-.37l-.11,0a1.4,1.4,0,0,1-.87-.66,1,1,0,0,1-.09-.43,5.69,5.69,0,0,1,.47-1.73s1.26-3.42,1.49-4.06h7.21l1.69,4.41a5.39,5.39,0,0,1,.49,1.58c0,.4-.28.59-.95.89l-.1,0V55h6.39v-.35l-.09-.05c-1.48-.75-2-2.17-2.64-3.68Z" transform="translate(0 -6.26)"/><path class="cls-2" d="M286.32,37.57a15.83,15.83,0,0,1,1.85-.21,3.71,3.71,0,0,1,2.74.95,2.9,2.9,0,0,1,.9,2.16c0,2.88-3.11,3.78-5,4.05l-.26,0,2.86,4.38,3.61,4.48A4,4,0,0,0,296.61,55h3.3l-.49-.31a20.58,20.58,0,0,1-4.75-4.1l-4.1-5.15c2.32-.63,4.58-2.6,4.58-5.29,0-3-2.47-4.92-6.29-4.92h-7.19v.37l.1,0c1.24.46,1.19,2.06,1.19,3.47v12c0,1.27.05,3-1.18,3.45l-.11,0V55h6v-.38l-.11,0c-1.12-.4-1.22-1.83-1.22-3Z" transform="translate(0 -6.26)"/><path class="cls-2" d="M331.41,35.2v.35l-.08.05c-1.45.83-1.45,1.93-1.45,3.57V56l-.23-.07a8.32,8.32,0,0,1-4.39-3.43L315.44,40V51.13c0,1.56,0,2.59,1.45,3.43l.08,0V55h-5.56v-.35l.08,0c1.49-.87,1.49-2,1.49-3.6V39.17c0-1.64,0-2.74-1.45-3.57l-.09-.05V35.2H316c0,.34.47.92.86,1.42l10.51,13.26V39c0-1.55,0-2.59-1.45-3.39l-.08-.05V35.2Z" transform="translate(0 -6.26)"/><path class="cls-2" d="M344.77,35.2h-9.62v.37l.11,0c1.26.46,1.24,2.23,1.22,3.53V51c0,1.29,0,3.06-1.22,3.5l-.12,0V55h12.6l1.45-4.2h-.39l0,0a7.22,7.22,0,0,1-5.33,1.71l-3.6-.34V45.49h2.11c.89,0,2,0,2.39.74l0,.08h.36V42.85h-.3l0,0a2.92,2.92,0,0,1-1.23.16h-3.35V37.84a18,18,0,0,1,2.85-.18A4,4,0,0,1,346,38.78l.05.06h.34V35h-.3a2.74,2.74,0,0,1-1.35.15" transform="translate(0 -6.26)"/><path class="cls-2" d="M148.16,71.78l.12,0c1.23.46,1.2,2.12,1.19,3.46,0,.16,0,.31,0,.45v3.48H139.17V75.73c0-.13,0-.26,0-.4,0-1.28,0-3,1.19-3.5l.12,0v-.39h-6v.39l.12,0c1.23.46,1.21,2.18,1.19,3.44,0,.15,0,.3,0,.44V86.85c0,.12,0,.26,0,.39,0,1.27,0,3-1.18,3.48l-.12,0v.39h6v-.39l-.12,0c-1.22-.47-1.2-2.21-1.19-3.48,0-.14,0-.27,0-.39V81.69h10.29v5.16q0,.21,0,.44c0,1.26,0,3-1.19,3.43l-.12,0v.39h6v-.39l-.12,0c-1.25-.46-1.23-2.21-1.21-3.49,0-.14,0-.26,0-.39V75.7c0-.12,0-.25,0-.39,0-1.27,0-3,1.21-3.49l.12,0v-.39h-6Z" transform="translate(0 -6.26)"/><path class="cls-2" d="M177.22,87A12.91,12.91,0,0,1,171,88.82c-4.17,0-7.31-3.45-7.31-8,0-4.17,2.76-7.08,6.72-7.08a10,10,0,0,1,5.36,1.65l.27.18V71.69l-.14,0a23.3,23.3,0,0,0-5.41-.74c-6.2,0-10.53,4.25-10.53,10.33,0,6.41,4.39,10.39,11.45,10.39a10.64,10.64,0,0,0,4.53-.9l.06,0L177.67,87h-.41Z" transform="translate(0 -6.26)"/><path class="cls-2" d="M200.44,87l0,0a12.94,12.94,0,0,1-6.2,1.83c-4.17,0-7.31-3.45-7.31-8,0-4.17,2.77-7.08,6.72-7.08A10,10,0,0,1,199,75.38l.27.18V71.69l-.14,0a23.42,23.42,0,0,0-5.41-.74c-6.2,0-10.53,4.25-10.53,10.33,0,6.41,4.39,10.38,11.45,10.38a10.66,10.66,0,0,0,4.53-.9l.06,0L200.85,87Z" transform="translate(0 -6.26)"/><path class="cls-4" d="M28.56,34.71c5.5-18.9,24.11-3.88,56.52,40l15.54-8.23C60.56,15.12,43.2,0,36.59,10.34s-8,24.36-8,24.36" transform="translate(0 -6.26)"/><path class="cls-4" d="M.75,55.06c5.5-18.9,24.61-2.63,52.78,40.17L69.07,87C34.25,43.32,15.4,20.35,8.78,30.69s-8,24.37-8,24.37" transform="translate(0 -6.26)"/></g><g class="cls-5"><rect class="cls-6" x="50.77" y="5.44" width="63.99" height="60"/></g><g class="cls-7"><rect class="cls-8" x="19.8" y="1.82" width="67.6" height="103.55"/></g><g class="cls-9"><rect class="cls-10" x="56.93" width="50.92" height="81.2"/></g><g class="cls-11"><rect class="cls-12" y="25.38" width="51.25" height="82.28"/></g></g></g></svg>